<?xml version="1.0" encoding="UTF-8" standalone="no"?><!DOCTYPE svg PUBLIC "-//W3C//DTD SVG 1.1//EN" "http://www.w3.org/Graphics/SVG/1.1/DTD/svg11.dtd"><svg width="100%" height="100%" viewBox="0 0 3300 3300" version="1.1" xmlns="http://www.w3.org/2000/svg" xmlns:xlink="http://www.w3.org/1999/xlink" xml:space="preserve" xmlns:serif="http://www.serif.com/" style="fill-rule:evenodd;clip-rule:evenodd;stroke-miterlimit:10;"><g id="Layer-1" serif:id="Layer 1"><path d="M483.274,2816.73l106.067,-106.066c281.304,281.304 662.833,439.341 1060.66,439.341l0,142.5c366.775,0 718.604,-123.896 1005.84,-343.904c34.054,-26.083 89.7,-64.792 121.779,-93.75c20.179,-18.217 19.771,-18.779 39.112,-38.121l-106.066,-106.066c281.304,-281.305 439.337,-662.834 439.337,-1060.66l142.5,0c0,-369.821 -155.662,-761.308 -379.229,-1049.8c-22.421,-28.937 -28.221,-43.85 -52.738,-71.35c-20.287,-22.758 -22.1,-23.871 -43.804,-45.575l-106.066,106.067c-281.305,-281.304 -662.838,-439.338 -1060.66,-439.338l0,-142.5c-326.312,0 -637.492,96.646 -905.592,271.988c-54.491,35.641 -160.866,113.421 -211.05,155.825c-34.025,28.75 -18.283,16.162 -50.083,47.958l106.067,106.067c-281.304,281.304 -439.342,662.837 -439.342,1060.66l-142.5,0c0,377.134 140.488,750.484 372.696,1041.9c21.583,27.088 27.158,44.021 50.608,69.808c17.004,18.7 34.496,37.046 52.471,55.021" style="fill:#343434;fill-rule:nonzero;"/><path d="M2816.73,483.274l-106.066,106.066c281.304,281.305 439.341,662.834 439.341,1060.66l142.5,-0c0,-354.35 -109.066,-696.946 -314.858,-978.771c-24.525,-33.592 -50.425,-66.317 -77.679,-98.096c-26.475,-30.871 -54.229,-60.85 -83.238,-89.858" style="fill:#969696;fill-rule:nonzero;"/><path d="M2816.73,2816.73l-106.066,-106.066c-281.305,281.304 -662.834,439.341 -1060.66,439.341l0,142.5c388.042,0 761.992,-130.796 1057.47,-376.175c18.692,-15.521 37.067,-31.5 55.113,-47.933c18.396,-16.75 36.446,-33.975 54.137,-51.667" style="fill:#969696;fill-rule:nonzero;"/><path d="M483.274,2816.73l106.067,-106.066c-281.304,-281.305 -439.342,-662.834 -439.342,-1060.66l-142.5,0c0,362.871 114.375,713.417 329.871,999c25.075,33.225 51.517,65.575 79.304,96.959c21.404,24.17 43.609,47.775 66.6,70.766" style="fill:#969696;fill-rule:nonzero;"/><path d="M483.274,483.274l106.067,106.066c281.304,-281.304 662.833,-439.341 1060.66,-439.341l0,-142.5c-374.842,-0 -736.533,122.046 -1027.05,351.529c-21.554,17.025 -42.712,34.637 -63.458,52.837c-26.079,22.884 -51.5,46.688 -76.221,71.409" style="fill:#969696;fill-rule:nonzero;"/><path d="M866.516,2703c-102.604,-76.334 -193.183,-166.917 -269.516,-269.513l-0,-1566.97c76.333,-102.595 166.912,-193.183 269.516,-269.516l1566.97,-0c102.6,76.333 193.183,166.916 269.517,269.516l-0,1566.97c-76.334,102.596 -166.917,193.179 -269.513,269.513l-1566.97,-0Z" style="fill:#fff;fill-rule:nonzero;"/><path d="M2445.81,559.5l-1591.62,0c-112.891,82.383 -212.308,181.8 -294.691,294.692l-0,1591.62c82.383,112.892 181.8,212.309 294.691,294.692l1591.62,0c112.892,-82.383 212.308,-181.8 294.692,-294.692l-0,-1591.62c-82.384,-112.892 -181.8,-212.309 -294.692,-294.692m-24.842,75c92.346,70.096 174.438,152.188 244.534,244.533l-0,1541.93c-70.096,92.345 -152.188,174.437 -244.534,244.533l-1541.93,0c-92.35,-70.096 -174.442,-152.188 -244.537,-244.533l-0,-1541.93c70.095,-92.346 152.187,-174.437 244.537,-244.533l1541.93,-0Z" style="fill:#3e3816;fill-rule:nonzero;"/></g><g id="Layer-8" serif:id="Layer 8"><path d="M3300,1650c0,911.271 -738.729,1650 -1650,1650c-911.271,0 -1650,-738.729 -1650,-1650c0,-911.271 738.729,-1650 1650,-1650c911.271,0 1650,738.729 1650,1650Z" style="fill:none;fill-rule:nonzero;stroke:#f6f;stroke-width:4.17px;"/><path d="M3292.5,1650c0,907.129 -735.371,1642.5 -1642.5,1642.5c-907.129,0 -1642.5,-735.371 -1642.5,-1642.5c0,-907.129 735.371,-1642.5 1642.5,-1642.5c907.129,0 1642.5,735.371 1642.5,1642.5Z" style="fill:none;fill-rule:nonzero;stroke:#3cf;stroke-width:4.17px;"/></g><g id="Circles"><path d="M0,1650l3300,0" style="fill:none;fill-rule:nonzero;stroke:#decd00;stroke-width:4.17px;"/><path d="M1650,3300l0,-3300" style="fill:none;fill-rule:nonzero;stroke:#decd00;stroke-width:4.17px;"/><path d="M1800,1650c0,-82.787 -67.213,-150 -150,-150c-82.787,0 -150,67.213 -150,150c0,82.787 67.213,150 150,150c82.787,0 150,-67.213 150,-150Z" style="fill:none;stroke:#c9171d;stroke-width:8.33px;"/><g opacity="0.31"><clipPath id="_clip1"><path d="M1731.92,1833l4.166,0l0,-366l-4.166,0l-0,366Z" clip-rule="nonzero"/></clipPath><g clip-path="url(#_clip1)"><path d="M1734,1833l0,-366" style="fill:none;fill-rule:nonzero;stroke:#decd00;stroke-width:4.17px;"/></g></g><g opacity="0.31"><clipPath id="_clip2"><path d="M1548.92,1835.08l370.166,0l0,-370.166l-370.166,-0l-0,370.166Z" clip-rule="nonzero"/></clipPath><g clip-path="url(#_clip2)"><path d="M1917,1650c0,-101 -82,-183 -183,-183c-101,0 -183,82 -183,183c0,101 82,183 183,183c101,0 183,-82 183,-183Z" style="fill:none;stroke:#decd00;stroke-width:4.17px;"/></g></g><g opacity="0.36"><clipPath id="_clip3"><path d="M1514.42,1869.58l439.166,0l0,-439.166l-439.166,-0l-0,439.166Z" clip-rule="nonzero"/></clipPath><g clip-path="url(#_clip3)"><path d="M1951.5,1650c0,-120.042 -97.458,-217.5 -217.5,-217.5c-120.042,0 -217.5,97.458 -217.5,217.5c0,120.042 97.458,217.5 217.5,217.5c120.042,0 217.5,-97.458 217.5,-217.5Z" style="fill:none;stroke:#5180c1;stroke-width:4.17px;"/></g></g><path d="M1892.51,1741.5l-0.001,-183" style="fill:none;fill-rule:nonzero;stroke:#decd00;stroke-width:4.17px;"/><path d="M1913.18,1741.5c0,-11.409 -9.261,-20.671 -20.669,-20.671c-11.407,0 -20.668,9.262 -20.668,20.671c-0,11.409 9.261,20.671 20.668,20.671c11.408,-0 20.669,-9.262 20.669,-20.671Z" style="fill:none;stroke:#40b549;stroke-width:8.33px;"/><path d="M1913.18,1558.5c0,-11.409 -9.261,-20.671 -20.669,-20.671c-11.407,0 -20.668,9.262 -20.668,20.671c-0,11.409 9.261,20.671 20.668,20.671c11.408,-0 20.669,-9.262 20.669,-20.671Z" style="fill:none;stroke:#40b549;stroke-width:8.33px;"/><path d="M0,3300l3300,-3300" style="fill:none;fill-rule:nonzero;stroke:#ffea00;stroke-width:4.17px;"/><path d="M1042.06,2604.59c0,-191.322 -155.328,-346.65 -346.65,-346.65c-191.321,-0 -346.65,155.328 -346.65,346.65c0,191.321 155.329,346.65 346.65,346.65c191.322,-0 346.65,-155.329 346.65,-346.65Z" style="fill:none;stroke:#e1d000;stroke-width:2.08px;"/><path d="M2951.4,695.251c-0,-191.321 -155.329,-346.65 -346.65,-346.65c-191.322,0 -346.65,155.329 -346.65,346.65c-0,191.322 155.328,346.65 346.65,346.65c191.321,0 346.65,-155.328 346.65,-346.65Z" style="fill:none;stroke:#e1d000;stroke-width:2.08px;"/><path d="M1130.09,2359.47c-0,-104.624 -84.942,-189.566 -189.567,-189.566c-104.625,-0 -189.567,84.942 -189.567,189.566c0,104.625 84.942,189.567 189.567,189.567c104.625,0 189.567,-84.942 189.567,-189.567Z" style="fill:none;stroke:#477cbf;stroke-width:4.17px;"/><path d="M1081.08,2359.47c-0,-77.571 -62.979,-140.55 -140.552,-140.55c-77.573,0 -140.552,62.979 -140.552,140.55c-0,77.572 62.979,140.55 140.552,140.55c77.573,0 140.552,-62.978 140.552,-140.55Z" style="fill:none;stroke:#e8e613;stroke-width:4.17px;"/><path d="M1057.63,2260.09c-0,-9.778 -7.939,-17.717 -17.717,-17.717c-9.778,0 -17.716,7.939 -17.716,17.717c-0,9.778 7.938,17.717 17.716,17.717c9.778,-0 17.717,-7.939 17.717,-17.717Z" style="fill:none;stroke:#19b24b;stroke-width:4.17px;"/><path d="M1057.63,2458.86c-0,-9.779 -7.939,-17.717 -17.717,-17.717c-9.778,-0 -17.716,7.938 -17.716,17.717c-0,9.778 7.938,17.716 17.716,17.716c9.778,0 17.717,-7.938 17.717,-17.716Z" style="fill:none;stroke:#19b24b;stroke-width:4.17px;"/><path d="M858.858,2458.86c-0,-9.778 -7.939,-17.717 -17.717,-17.717c-9.778,0 -17.717,7.939 -17.717,17.717c0,9.778 7.939,17.716 17.717,17.716c9.778,0 17.716,-7.938 17.716,-17.716Z" style="fill:none;stroke:#19b24b;stroke-width:4.17px;"/><path d="M858.859,2260.09c0,-9.778 -7.938,-17.716 -17.716,-17.716c-9.779,-0 -17.717,7.938 -17.717,17.716c-0,9.778 7.938,17.717 17.716,17.717c9.779,0 17.717,-7.939 17.717,-17.717Z" style="fill:none;stroke:#19b24b;stroke-width:4.17px;"/><path d="M2549.2,940.37c0,-104.625 -84.942,-189.567 -189.567,-189.567c-104.624,0 -189.566,84.942 -189.566,189.567c-0,104.625 84.942,189.567 189.566,189.567c104.625,-0 189.567,-84.942 189.567,-189.567Z" style="fill:none;stroke:#477cbf;stroke-width:4.17px;"/><path d="M2476.73,840.985c0,-9.778 -7.938,-17.717 -17.716,-17.717c-9.779,0 -17.717,7.939 -17.717,17.717c-0,9.778 7.938,17.717 17.717,17.717c9.778,-0 17.716,-7.939 17.716,-17.717Z" style="fill:none;stroke:#19b24b;stroke-width:4.17px;"/><path d="M2476.73,1039.75c0,-9.778 -7.938,-17.716 -17.716,-17.716c-9.779,-0 -17.717,7.938 -17.717,17.716c-0,9.778 7.938,17.717 17.717,17.717c9.778,-0 17.716,-7.939 17.716,-17.717Z" style="fill:none;stroke:#19b24b;stroke-width:4.17px;"/><path d="M2277.96,1039.75c-0,-9.778 -7.939,-17.716 -17.717,-17.716c-9.778,-0 -17.716,7.938 -17.716,17.716c-0,9.778 7.938,17.717 17.716,17.717c9.778,0 17.717,-7.939 17.717,-17.717Z" style="fill:none;stroke:#19b24b;stroke-width:4.17px;"/><path d="M2277.97,840.987c-0,-9.778 -7.939,-17.716 -17.717,-17.716c-9.778,-0 -17.717,7.938 -17.717,17.716c0,9.779 7.939,17.717 17.717,17.717c9.778,0 17.717,-7.938 17.717,-17.716Z" style="fill:none;stroke:#19b24b;stroke-width:4.17px;"/></g><g id="Arduino"><rect x="1575.63" y="1883.45" width="956.692" height="679.133" style="fill:none;stroke:#384ba0;stroke-width:4.17px;"/><rect x="2488.03" y="1883.45" width="44.292" height="53.15" style="fill:none;stroke:#e0e31d;stroke-width:4.17px;"/><rect x="2488.03" y="2509.43" width="44.292" height="53.15" style="fill:none;stroke:#e0e31d;stroke-width:4.17px;"/><path d="M2507.22,2509.43c0,-10.592 -8.6,-19.192 -19.194,-19.192c-10.593,0 -19.193,8.6 -19.193,19.192c-0,10.592 8.6,19.192 19.193,19.192c10.594,-0 19.194,-8.6 19.194,-19.192Z" style="fill:none;stroke:#089447;stroke-width:8.33px;"/><path d="M2507.22,1936.6c0,-10.592 -8.6,-19.191 -19.194,-19.191c-10.593,-0 -19.193,8.599 -19.193,19.191c-0,10.593 8.6,19.192 19.193,19.192c10.594,0 19.194,-8.599 19.194,-19.192Z" style="fill:none;stroke:#32b44a;stroke-width:8.33px;"/></g><g id="LimitSwitch"><rect x="2374.03" y="1536" width="228" height="228" style="fill:none;stroke:#e61e25;stroke-width:8.33px;"/></g><g id="IBT"><rect x="718.458" y="1465.42" width="566.929" height="510.825" style="fill:none;stroke:#33459c;stroke-width:4.17px;"/><rect x="747.988" y="1494.95" width="507.875" height="451.771" style="fill:none;stroke:#e8e748;stroke-width:4.17px;"/><path d="M765.704,1494.94c0,-9.778 -7.938,-17.717 -17.717,-17.717c-9.778,0 -17.716,7.939 -17.716,17.717c-0,9.778 7.938,17.717 17.716,17.717c9.779,-0 17.717,-7.939 17.717,-17.717Z" style="fill:none;stroke:#1db24b;stroke-width:4.17px;"/><path d="M765.704,1946.72c0,-9.778 -7.938,-17.717 -17.717,-17.717c-9.778,0 -17.716,7.939 -17.716,17.717c-0,9.778 7.938,17.716 17.716,17.716c9.779,0 17.717,-7.938 17.717,-17.716Z" style="fill:none;stroke:#1db24b;stroke-width:4.17px;"/><path d="M1273.58,1946.72c-0,-9.778 -7.939,-17.717 -17.717,-17.717c-9.778,0 -17.716,7.939 -17.716,17.717c-0,9.778 7.938,17.716 17.716,17.716c9.778,0 17.717,-7.938 17.717,-17.716Z" style="fill:none;stroke:#1db24b;stroke-width:4.17px;"/><path d="M1273.58,1494.94c-0,-9.778 -7.939,-17.717 -17.717,-17.717c-9.778,0 -17.716,7.939 -17.716,17.717c-0,9.778 7.938,17.717 17.716,17.717c9.778,-0 17.717,-7.939 17.717,-17.717Z" style="fill:none;stroke:#1db24b;stroke-width:4.17px;"/></g><g id="_9V" serif:id="9V"><rect x="675.408" y="2058.08" width="803.15" height="389.763" style="fill:none;stroke:#cd4699;stroke-width:4.17px;"/></g><g id="AA"><rect x="1076.98" y="602.867" width="1228.35" height="767.717" style="fill:none;stroke:#cd4699;stroke-width:4.17px;"/></g></svg>