<?xml version="1.0" encoding="UTF-8" standalone="no"?><!DOCTYPE svg PUBLIC "-//W3C//DTD SVG 1.1//EN" "http://www.w3.org/Graphics/SVG/1.1/DTD/svg11.dtd"><svg width="100%" height="100%" viewBox="0 0 3600 3600" version="1.1" xmlns="http://www.w3.org/2000/svg" xmlns:xlink="http://www.w3.org/1999/xlink" xml:space="preserve" xmlns:serif="http://www.serif.com/" style="fill-rule:evenodd;clip-rule:evenodd;stroke-miterlimit:10;"><g id="Layer-1" serif:id="Layer 1"><path d="M225,0l0,225l-225,0l0,3150l225,0l0,225l3150,0l0,-225l225,0l0,-3150l-225,0l0,-225l-3150,0Z" style="fill:#4f4f4f;fill-rule:nonzero;"/><path d="M3151.6,2746.4c194.221,-277.375 305.9,-607.788 305.9,-946.4l-150,-0c-0,307.829 -95.963,612.579 -272.525,864.737l116.625,81.663Z" style="fill:#969696;fill-rule:nonzero;"/><path d="M853.599,3151.6c277.375,194.221 607.787,305.9 946.4,305.9l-0,-150c-307.829,-0 -612.579,-95.963 -864.738,-272.525l-81.662,116.625Z" style="fill:#969696;fill-rule:nonzero;"/><path d="M2746.4,448.399c-277.375,-194.221 -607.787,-305.9 -946.4,-305.9l0,150c307.829,0 612.579,95.963 864.738,272.525l81.662,-116.625Z" style="fill:#969696;fill-rule:nonzero;"/><path d="M448.399,853.599c-194.221,277.375 -305.9,607.787 -305.9,946.4l150,-0c0,-307.829 95.963,-612.579 272.525,-864.738l-116.625,-81.662Z" style="fill:#969696;fill-rule:nonzero;"/><path d="M1837.5,3307.5c0,-20.712 -16.787,-37.5 -37.5,-37.5c-299.029,0 -598.496,-94.375 -843.229,-265.737c-6.546,-4.588 -14.05,-6.788 -21.479,-6.788c-11.821,0 -23.454,5.575 -30.75,15.996l-64.275,91.8c-197.834,-145.654 -362.1,-337.721 -476.513,-557.567c-114.391,-219.812 -177.471,-464.571 -183.304,-710.204l112.05,0c20.713,0 37.5,-16.787 37.5,-37.5c0,-299.029 94.379,-598.496 265.746,-843.229c5.704,-8.146 7.937,-18.225 6.208,-28.021c-1.725,-9.796 -7.271,-18.5 -15.421,-24.208l-91.8,-64.275c145.655,-197.834 337.721,-362.1 557.563,-476.509c219.817,-114.395 464.571,-177.47 710.204,-183.308l0,112.05c0,20.713 16.788,37.5 37.5,37.5c299.033,0 598.5,94.379 843.229,265.742c6.546,4.583 14.05,6.787 21.475,6.787c11.821,0 23.454,-5.575 30.75,-15.991l64.284,-91.8c197.829,145.65 362.095,337.716 476.504,557.558c114.396,219.817 177.47,464.571 183.308,710.204l-112.05,0c-20.712,0 -37.5,16.788 -37.5,37.5c0,299.034 -94.379,598.5 -265.742,843.229c-5.704,8.146 -7.937,18.225 -6.212,28.021c1.725,9.796 7.275,18.5 15.421,24.204l91.804,64.28c-145.654,197.833 -337.725,362.099 -557.571,476.508c-219.812,114.4 -464.567,177.471 -710.2,183.312l0,-112.054Z" style="fill:#fff;fill-rule:nonzero;"/><path d="M1800,142.5c-538.337,0 -1049.08,265.738 -1357.86,706.717l122.883,86.041c-176.563,252.163 -272.525,556.913 -272.525,864.742l-150,0c-0,538.338 265.738,1049.08 706.717,1357.86l86.041,-122.883c252.163,176.563 556.913,272.525 864.742,272.525l0,150c538.338,0 1049.08,-265.738 1357.86,-706.717l-122.883,-86.041c176.563,-252.163 272.525,-556.913 272.525,-864.742l150,0c0,-538.337 -265.738,-1049.08 -706.717,-1357.86l-86.041,122.883c-252.163,-176.563 -556.913,-272.525 -864.742,-272.525l0,-150Zm-75,76.825l0,73.175c0,41.421 33.579,75 75,75c145.575,-0 290.483,22.4 430.708,66.583c140.271,44.2 271.83,108.925 391.017,192.379c12.692,8.888 27.729,13.563 43.017,13.563c4.333,0 8.696,-0.379 13.025,-1.142c19.587,-3.45 37,-14.546 48.408,-30.841l41.979,-59.95c179.563,139.208 329.017,318.204 434.825,521.516c105.796,203.292 166.663,428.417 177.696,655.392l-73.175,0c-41.421,0 -75,33.579 -75,75c0,145.575 -22.4,290.483 -66.583,430.708c-44.2,140.271 -108.925,271.83 -192.379,391.017c-11.409,16.292 -15.875,36.45 -12.421,56.042c3.45,19.587 14.546,37 30.841,48.408l59.95,41.979c-139.208,179.563 -318.204,329.017 -521.516,434.825c-203.292,105.796 -428.417,166.663 -655.392,177.696l0,-73.175c0,-41.421 -33.579,-75 -75,-75c-145.575,0 -290.483,-22.4 -430.708,-66.583c-140.271,-44.2 -271.829,-108.925 -391.017,-192.379c-12.692,-8.888 -27.729,-13.563 -43.017,-13.563c-4.333,0 -8.695,0.379 -13.025,1.142c-19.587,3.45 -37,14.546 -48.408,30.841l-41.979,59.95c-179.563,-139.208 -329.017,-318.204 -434.825,-521.516c-105.796,-203.292 -166.663,-428.417 -177.696,-655.392l73.175,0c41.421,0 75,-33.579 75,-75c0,-145.575 22.4,-290.483 66.583,-430.708c44.2,-140.271 108.925,-271.829 192.38,-391.017c11.408,-16.292 15.875,-36.45 12.42,-56.042c-3.45,-19.587 -14.545,-37 -30.841,-48.408l-59.95,-41.979c139.208,-179.563 318.204,-329.017 521.516,-434.825c203.292,-105.796 428.417,-166.663 655.392,-177.696" style="fill:#edcb48;fill-rule:nonzero;"/></g><g id="Layer-2" serif:id="Layer 2"><path d="M1608.25,1740.43c2.901,-9.338 -2.325,-19.275 -11.663,-22.176c-9.339,-2.901 -19.275,2.324 -22.177,11.662c-2.901,9.338 2.326,19.275 11.664,22.176c9.338,2.902 19.275,-2.324 22.176,-11.662Z" style="fill:none;stroke:#129e49;stroke-width:8.33px;"/><path d="M2026.13,1868.32c2.901,-9.338 -2.325,-19.275 -11.664,-22.176c-9.338,-2.901 -19.275,2.325 -22.176,11.663c-2.901,9.338 2.325,19.274 11.663,22.175c9.339,2.902 19.276,-2.324 22.177,-11.662Z" style="fill:none;stroke:#129e49;stroke-width:8.33px;"/><path d="M1800.07,1640.54c-7.17,0 -14.279,0.488 -21.295,1.433l-2.821,0.384l-189.742,25.791c-2.817,0.217 -5.604,0.571 -8.342,1.134c-23.233,4.771 -43.233,21.687 -50.766,45.937c-7.534,24.246 -0.642,49.517 15.796,66.613c1.941,2.016 4.037,3.891 6.233,5.662l141.725,128.775l2.092,1.9c16.679,15.134 36.82,26.979 59.745,34.104c15.713,4.88 31.609,7.192 47.238,7.192c7.175,0 14.287,-0.487 21.308,-1.433l2.804,-0.384l189.746,-25.791c2.817,-0.217 5.604,-0.571 8.346,-1.134c23.229,-4.77 43.229,-21.687 50.763,-45.937c7.533,-24.246 0.641,-49.517 -15.796,-66.613c-1.938,-2.016 -4.034,-3.887 -6.23,-5.662l-141.725,-128.775l-2.1,-1.908c-16.679,-15.13 -36.816,-26.971 -59.741,-34.096c-15.713,-4.879 -31.609,-7.192 -47.238,-7.192m0,8.333c15.142,0 30.204,2.296 44.767,6.817c21.187,6.583 40.233,17.454 56.608,32.304l2.1,1.913l141.725,128.771l0.179,0.166l0.188,0.15c2.092,1.692 3.879,3.313 5.458,4.954c14.909,15.505 20.213,37.871 13.846,58.367c-6.367,20.496 -23.412,35.917 -44.479,40.246c-2.238,0.458 -4.629,0.783 -7.308,0.987l-0.242,0.021l-0.242,0.029l-189.746,25.796l-2.8,0.379c-6.679,0.9 -13.47,1.359 -20.191,1.359c-15.142,-0 -30.204,-2.292 -44.767,-6.817c-21.187,-6.583 -40.237,-17.458 -56.612,-32.312l-2.092,-1.9l-141.725,-128.775l-0.179,-0.163l-0.192,-0.154c-2.091,-1.688 -3.875,-3.308 -5.458,-4.954c-14.909,-15.504 -20.213,-37.871 -13.846,-58.367c6.371,-20.496 23.413,-35.917 44.483,-40.246c2.234,-0.458 4.621,-0.779 7.305,-0.987l0.241,-0.017l0.242,-0.033l189.746,-25.792l2.808,-0.383c6.679,-0.9 13.467,-1.359 20.183,-1.359" style="fill:#dc2526;fill-rule:nonzero;"/><path d="M1010.07,297.999l2291.93,712.066l-66.757,214.871l-2291.93,-712.066l66.757,-214.871Z" style="fill:none;stroke:#37489d;stroke-width:4.17px;"/><path d="M364.757,2375.06l2291.93,712.067l-66.757,214.871l-2291.93,-712.066l66.757,-214.872Z" style="fill:none;stroke:#37489d;stroke-width:4.17px;"/><path d="M943.312,512.866l214.888,66.765l-578.576,1862.19l-214.888,-66.765l578.576,-1862.19Z" style="fill:none;stroke:#37489d;stroke-width:4.17px;"/><path d="M3020.38,1158.18l214.888,66.765l-578.575,1862.19l-214.888,-66.765l578.575,-1862.19Z" style="fill:none;stroke:#37489d;stroke-width:4.17px;"/><path d="M911.915,2077.41c-80.834,0.004 -155.73,52.121 -180.971,133.375c-31.063,99.979 24.804,206.212 124.787,237.275c18.725,5.816 37.671,8.583 56.3,8.583c80.834,0 155.729,-52.121 180.975,-133.371c31.063,-99.983 -24.808,-206.212 -124.787,-237.275c-18.729,-5.821 -37.671,-8.587 -56.304,-8.587m0.004,-0l-0,8.333c18.179,0 36.287,2.763 53.825,8.213c95.433,29.65 148.95,131.408 119.304,226.841c-11.708,37.679 -34.729,69.796 -66.575,92.884c-30.804,22.333 -68.604,34.629 -106.442,34.629c-18.183,-0 -36.291,-2.763 -53.829,-8.209c-46.229,-14.362 -84.1,-45.87 -106.633,-88.716c-22.534,-42.842 -27.034,-91.9 -12.667,-138.129c11.704,-37.675 34.725,-69.792 66.571,-92.88c30.804,-22.333 68.604,-34.633 106.442,-34.633l0.004,-8.333Z" style="fill:#dc1f26;fill-rule:nonzero;"/><path d="M1046.2,2308.73c23.015,-74.081 -18.443,-152.91 -92.523,-175.925c-74.08,-23.015 -152.909,18.444 -175.924,92.525c-23.015,74.08 18.443,152.91 92.523,175.925c74.079,23.015 152.908,-18.444 175.924,-92.525Z" style="fill:none;stroke:#e7e51a;stroke-width:4.17px;"/><path d="M1053.29,2206.87c2.901,-9.338 -2.325,-19.275 -11.664,-22.176c-9.338,-2.901 -19.275,2.325 -22.176,11.663c-2.901,9.338 2.325,19.275 11.664,22.176c9.338,2.901 19.275,-2.325 22.176,-11.663Z" style="fill:none;stroke:#1db14b;stroke-width:4.17px;"/><path d="M994.315,2396.68c2.901,-9.338 -2.325,-19.275 -11.664,-22.176c-9.338,-2.901 -19.275,2.325 -22.176,11.663c-2.901,9.338 2.325,19.274 11.663,22.176c9.339,2.901 19.276,-2.325 22.177,-11.663Z" style="fill:none;stroke:#1db14b;stroke-width:4.17px;"/><path d="M804.497,2337.71c2.901,-9.338 -2.325,-19.275 -11.664,-22.176c-9.338,-2.901 -19.275,2.325 -22.176,11.663c-2.901,9.338 2.325,19.274 11.663,22.175c9.339,2.902 19.276,-2.324 22.177,-11.662Z" style="fill:none;stroke:#1db14b;stroke-width:4.17px;"/><path d="M863.471,2147.89c2.902,-9.338 -2.325,-19.274 -11.663,-22.176c-9.338,-2.901 -19.275,2.325 -22.176,11.663c-2.902,9.338 2.325,19.275 11.663,22.176c9.338,2.901 19.275,-2.325 22.176,-11.663Z" style="fill:none;stroke:#1db14b;stroke-width:4.17px;"/><path d="M2688.16,1143.25c-80.833,0.004 -155.729,52.121 -180.975,133.375c-31.058,99.979 24.808,206.213 124.792,237.275c18.725,5.817 37.666,8.584 56.3,8.584c80.833,-0 155.729,-52.121 180.97,-133.371c31.063,-99.984 -24.804,-206.213 -124.787,-237.275c-18.725,-5.821 -37.667,-8.588 -56.3,-8.588m0.004,0l0,8.334c18.179,-0 36.288,2.762 53.825,8.212c95.433,29.65 148.95,131.408 119.304,226.842c-11.708,37.679 -34.729,69.796 -66.575,92.883c-30.804,22.333 -68.604,34.629 -106.441,34.629c-18.184,0 -36.292,-2.762 -53.83,-8.208c-95.433,-29.65 -148.95,-131.413 -119.304,-226.846c11.709,-37.675 34.729,-69.792 66.575,-92.879c30.804,-22.333 68.604,-34.633 106.442,-34.633l0.004,-8.334Z" style="fill:#d12026;fill-rule:nonzero;"/><path d="M2822.45,1374.57c23.015,-74.08 -18.443,-152.91 -92.523,-175.925c-74.08,-23.015 -152.909,18.444 -175.924,92.525c-23.015,74.081 18.443,152.91 92.523,175.925c74.08,23.015 152.909,-18.444 175.924,-92.525Z" style="fill:none;stroke:#e7e51a;stroke-width:4.17px;"/><path d="M2829.54,1272.7c2.901,-9.338 -2.325,-19.275 -11.664,-22.176c-9.338,-2.901 -19.275,2.325 -22.176,11.663c-2.901,9.338 2.325,19.275 11.663,22.176c9.339,2.901 19.276,-2.325 22.177,-11.663Z" style="fill:none;stroke:#1db14b;stroke-width:4.17px;"/><path d="M2770.56,1462.52c2.901,-9.338 -2.325,-19.275 -11.663,-22.176c-9.339,-2.901 -19.276,2.325 -22.177,11.663c-2.901,9.338 2.325,19.275 11.663,22.177c9.339,2.901 19.276,-2.325 22.177,-11.664Z" style="fill:none;stroke:#1db14b;stroke-width:4.17px;"/><path d="M2580.74,1403.55c2.901,-9.338 -2.325,-19.275 -11.663,-22.176c-9.339,-2.901 -19.276,2.325 -22.177,11.663c-2.901,9.338 2.325,19.275 11.664,22.176c9.338,2.901 19.275,-2.325 22.176,-11.663Z" style="fill:none;stroke:#1db14b;stroke-width:4.17px;"/><path d="M2639.72,1213.73c2.901,-9.338 -2.325,-19.275 -11.663,-22.176c-9.339,-2.901 -19.275,2.325 -22.177,11.663c-2.901,9.338 2.326,19.275 11.664,22.176c9.338,2.901 19.275,-2.325 22.176,-11.663Z" style="fill:none;stroke:#1db14b;stroke-width:4.17px;"/><path d="M2173.12,2392.3l-67.646,217.733l315.141,97.908l67.646,-217.733l-315.141,-97.908Zm5.487,10.429l299.221,92.967l-62.7,201.816l-299.225,-92.962l62.704,-201.821Z" style="fill:#dc1f26;fill-rule:nonzero;"/></g></svg>